<?xml version="1.0" encoding="UTF-8"?>
<svg width="32px" height="32px" viewBox="0 0 32 32" version="1.1" xmlns="http://www.w3.org/2000/svg" xmlns:xlink="http://www.w3.org/1999/xlink">
    <title>favicon</title>
    <g id="favicon" stroke="none" stroke-width="1" fill="none" fill-rule="evenodd">
        <g id="32" fill-rule="nonzero">
            <rect id="Rectangle" fill="#EEEEEE" x="0" y="0" width="32" height="32" rx="8"></rect>
            <path d="M5.82556,20.9805 C5.22692,20.1301 4.94069,19.1128 5.01202,18.0891 L5.01202,13.9109 C4.9365,12.8797 5.21841,11.8534 5.81393,10.9917 C6.35241,10.3269 7.27248,9.99632 8.57414,9.99996961 C9.8758,10.0037 10.7571,10.2953 11.2181,10.8747 C11.7803,11.5927 12.0545,12.4804 11.991,13.3761 L11.991,14.3566 L9.58525,14.3566 L9.58525,13.2925 C9.58201,13.0125 9.55676,12.7332 9.50971,12.4568 C9.48062,12.2568 9.38481,12.0711 9.23659,11.9276 C9.14509,11.8524 9.03887,11.7954 8.92412,11.76 C8.80938,11.7246 8.68842,11.7115 8.56833,11.7215 C8.39586,11.6968 8.21966,11.7237 8.06369,11.7984 C7.90773,11.8732 7.77957,11.9922 7.69668,12.1393 C7.54389,12.5305 7.47665,12.9477 7.49911,13.3649 L7.49911,18.6685 C7.4726,19.0885 7.55027,19.5085 7.72574,19.8942 C7.80958,20.0333 7.93399,20.1459 8.08369,20.2181 C8.23338,20.2904 8.40183,20.3191 8.56833,20.3008 C8.73194,20.323 8.89869,20.2951 9.04477,20.2211 C9.19086,20.147 9.30883,20.0307 9.38187,19.8886 C9.52243,19.4966 9.58357,19.0825 9.56201,18.6685 L9.56201,17.5543 L11.9678,17.5543 L11.9678,18.5181 C12.0386,19.427 11.7867,20.3321 11.253,21.0864 C10.7416,21.6992 9.85837,22 8.6032,22 C7.34803,22 6.36598,21.6657 5.82556,20.9805 Z" id="Path" fill="#111111"></path>
            <path d="M15.2091,10 L17.8074,10 L20,22 L17.8402,22 L17.4511,19.3486 L15.6312,19.3486 L15.1926,21.9829 L13,21.9829 L15.2091,10 Z M17.2099,17.84 L16.5192,13.0171 L15.834,17.84 L17.2099,17.84 Z" id="Shape" fill="#111111"></path>
            <polygon id="Path" fill="#111111" points="21.8134 11.8083 20 11.8083 20 10 26 10 26 11.8083 24.209 11.8083 24.209 22 21.8078 22"></polygon>
        </g>
    </g>
</svg>