<svg width="80" height="80" viewBox="0 0 80 80" fill="none" xmlns="http://www.w3.org/2000/svg">
<rect width="80" height="80" fill="white"/>
<rect width="80" height="80" fill="#68B738"/>
<path fill-rule="evenodd" clip-rule="evenodd" d="M48.8231 20.1015C49.3213 19.8952 49.8948 20.0092 50.2761 20.3906C51.4875 21.6019 53.0718 24.2275 54.3545 28.2811C55.6497 32.3739 56.6667 38.0108 56.6667 45.3334C56.6667 46.0698 56.0697 46.6667 55.3333 46.6667H50.6667V58.6667C50.6667 59.4031 50.0697 60 49.3333 60C48.597 60 48 59.4031 48 58.6667V21.3334C48 20.7941 48.3249 20.3079 48.8231 20.1015ZM50.6667 44H53.9882C53.8737 37.5781 52.9401 32.6501 51.8121 29.0857C51.441 27.9128 51.0513 26.8953 50.6667 26.0253V44Z" fill="white"/>
<path fill-rule="evenodd" clip-rule="evenodd" d="M32 20C32.7364 20 33.3333 20.597 33.3333 21.3333V58.6667C33.3333 59.403 32.7364 60 32 60C31.2636 60 30.6667 59.403 30.6667 58.6667V21.3333C30.6667 20.597 31.2636 20 32 20Z" fill="white"/>
<path fill-rule="evenodd" clip-rule="evenodd" d="M26 20C26.7364 20 27.3333 20.597 27.3333 21.3333V28.6667C27.3333 29.4092 27.5894 30.4202 28.2678 31.2221C28.9067 31.9771 30.0193 32.6667 31.9999 32.6667C32.7363 32.6667 33.3332 33.2636 33.3332 34C33.3332 34.7364 32.7363 35.3333 31.9999 35.3333C29.314 35.3333 27.4266 34.3563 26.2321 32.9446C25.0773 31.5798 24.6667 29.9242 24.6667 28.6667V21.3333C24.6667 20.597 25.2636 20 26 20Z" fill="white"/>
<path fill-rule="evenodd" clip-rule="evenodd" d="M38 20C37.2636 20 36.6667 20.597 36.6667 21.3333V28.6667C36.6667 29.4092 36.4106 30.4202 35.7322 31.2221C35.0933 31.9771 33.9805 32.6667 31.9999 32.6667C31.2635 32.6667 30.6668 33.2636 30.6668 34C30.6668 34.7364 31.2635 35.3333 31.9999 35.3333C34.6858 35.3333 36.5734 34.3563 37.7679 32.9446C38.9227 31.5798 39.3333 29.9242 39.3333 28.6667V21.3333C39.3333 20.597 38.7364 20 38 20Z" fill="white"/>
</svg>
