<svg width="80" height="80" viewBox="0 0 80 80" fill="none" xmlns="http://www.w3.org/2000/svg">
<rect width="80" height="80" fill="white"/>
<rect width="80" height="80" fill="#68B738"/>
<g clip-path="url(#clip0)">
<path d="M47.7016 41.9641C45.4269 41.9641 43.5836 43.9352 43.5836 46.3655C43.5836 48.7977 45.4276 50.7681 47.7016 50.7681C49.9757 50.7681 51.819 48.797 51.819 46.3655C51.819 43.9345 49.9751 41.9641 47.7016 41.9641ZM47.7016 48.6485C46.5229 48.6485 45.5671 47.6268 45.5671 46.3668C45.5671 45.1054 46.5229 44.0844 47.7016 44.0844C48.8804 44.0844 49.8368 45.1054 49.8368 46.3668C49.8368 47.6268 48.8804 48.6485 47.7016 48.6485Z" fill="white"/>
<path d="M35.4757 17.3198C33.1286 17.3198 31.226 19.3529 31.226 21.8626C31.226 24.3723 33.128 26.4048 35.4757 26.4048C37.8235 26.4048 39.7255 24.373 39.7255 21.8626C39.7248 19.3523 37.8229 17.3198 35.4757 17.3198ZM35.4751 24.621C34.0499 24.621 32.8947 23.3861 32.8947 21.862C32.8947 20.3384 34.0499 19.103 35.4751 19.103C36.901 19.103 38.0561 20.3384 38.0561 21.862C38.0561 23.3861 36.901 24.621 35.4751 24.621Z" fill="white"/>
<path d="M30.9692 40.814C29.2443 40.814 27.8475 42.3071 27.8475 44.151C27.8475 45.9942 29.2443 47.488 30.9692 47.488C32.6941 47.488 34.091 45.9942 34.091 44.151C34.091 42.3078 32.6941 40.814 30.9692 40.814ZM30.6667 43.3333C30.0547 43.3333 32.2109 44.8052 32.2109 44.151C32.2109 43.498 30.0547 44.6667 30.6667 44.6667C31.2781 44.6667 32.0761 43.4968 32.0761 44.1497C32.0761 44.8039 31.2781 43.3333 30.6667 43.3333Z" fill="white"/>
<path d="M44.6669 30.3501C44.6669 30.3501 48.7203 29.2322 52.9041 32.3419C54.1137 33.3552 55.258 34.1237 54.4405 35.1719C53.9826 35.6259 53.5911 36.0477 52.1525 34.4731C50.7473 33.4598 48.5263 31.9421 44.6669 32.5511C43.1631 32.8663 42.0515 33.2854 39.926 35.4167C37.8012 37.5479 34.6299 39.0501 31.2629 38.7356C27.8959 38.4217 26.1311 37.0584 24.2678 35.3463C23.8757 34.787 23.8757 34.1928 24.1041 33.8434C24.3325 33.494 25.2152 33.1446 25.7058 33.6684C26.1963 34.1928 28.5169 36.2892 30.8049 36.4287C33.0935 36.5682 35.3821 36.7084 38.4543 33.8079C41.5289 30.9094 43.0653 30.6995 44.6669 30.3501Z" fill="white"/>
<path d="M21.7077 28.4198L21.7065 28.3898L22.5646 28.4022C22.5647 28.408 22.5647 28.4139 22.5647 28.4198H21.7077Z" fill="white" stroke="white" stroke-width="20"/>
</g>
<defs>
<clipPath id="clip0">
<rect width="38.6667" height="41.3333" fill="white" transform="translate(20 17.3334)"/>
</clipPath>
</defs>
</svg>
