<svg width="80" height="80" viewBox="0 0 80 80" fill="none" xmlns="http://www.w3.org/2000/svg">
<rect width="80" height="80" fill="#68B738"/>
<g clip-path="url(#clip0)">
<path d="M45.7762 42.4731C44.0702 42.4731 42.6877 43.9515 42.6877 45.7742C42.6877 47.5983 44.0707 49.0761 45.7762 49.0761C47.4818 49.0761 48.8643 47.5978 48.8643 45.7742C48.8643 43.951 47.4813 42.4731 45.7762 42.4731ZM45.7762 47.4864C44.8922 47.4864 44.1753 46.7201 44.1753 45.7751C44.1753 44.8291 44.8922 44.0633 45.7762 44.0633C46.6603 44.0633 47.3776 44.8291 47.3776 45.7751C47.3776 46.7201 46.6603 47.4864 45.7762 47.4864Z" fill="white"/>
<path d="M36.6068 23.9899C34.8464 23.9899 33.4195 25.5147 33.4195 27.397C33.4195 29.2792 34.846 30.8036 36.6068 30.8036C38.3676 30.8036 39.7941 29.2797 39.7941 27.397C39.7936 25.5142 38.3672 23.9899 36.6068 23.9899ZM36.6063 29.4657C35.5374 29.4657 34.671 28.5396 34.671 27.3965C34.671 26.2538 35.5374 25.3272 36.6063 25.3272C37.6757 25.3272 38.5421 26.2538 38.5421 27.3965C38.5421 28.5396 37.6757 29.4657 36.6063 29.4657Z" fill="white"/>
<path d="M33.2269 41.6105C31.9333 41.6105 30.8856 42.7303 30.8856 44.1132C30.8856 45.4956 31.9333 46.616 33.2269 46.616C34.5206 46.616 35.5682 45.4956 35.5682 44.1132C35.5682 42.7308 34.5206 41.6105 33.2269 41.6105ZM33 43.5C32.541 43.5 34.1582 44.6039 34.1582 44.1132C34.1582 43.6235 32.541 44.5 33 44.5C33.4586 44.5 34.0571 43.6226 34.0571 44.1123C34.0571 44.6029 33.4586 43.5 33 43.5Z" fill="white"/>
<path d="M43.5002 33.7627C43.5002 33.7627 46.5402 32.9242 49.6781 35.2565C50.5853 36.0164 51.4435 36.5929 50.8304 37.379C50.4869 37.7195 50.1933 38.0358 49.1144 36.8549C48.0604 36.0949 46.3948 34.9566 43.5002 35.4134C42.3724 35.6498 41.5386 35.9641 39.9445 37.5626C38.3509 39.161 35.9724 40.2877 33.4472 40.0518C30.9219 39.8164 29.5983 38.7939 28.2009 37.5098C27.9068 37.0903 27.9068 36.6447 28.0781 36.3826C28.2494 36.1206 28.9114 35.8585 29.2793 36.2514C29.6473 36.6447 31.3877 38.217 33.1037 38.3216C34.8201 38.4262 36.5366 38.5313 38.8407 36.356C41.1467 34.1821 42.299 34.0247 43.5002 33.7627Z" fill="white"/>
<mask id="path-6-inside-1" fill="white">
<path d="M53.6457 50.8156V32.1574C53.6457 31.5791 53.2718 31.5074 53.1218 31.5021H52.6162C52.1227 31.5021 52.0797 32.0586 52.0783 32.2407C52.0783 32.2587 52.0783 32.2737 52.0783 32.2916C52.0783 32.2931 52.0783 32.3013 52.0783 32.3013C52.0797 35.9099 52.0874 50.5545 52.0765 50.8412C52.0643 51.1692 52.0031 52.0076 51.2554 52.7284C50.447 53.4234 49.6378 53.3314 49.6378 53.3314C49.6378 53.3314 29.4606 53.3314 28.9825 53.3048C28.6028 53.2394 27.9408 53.095 27.3766 52.2958C26.813 51.4966 26.9235 50.4484 26.9235 50.4484V32.3149C26.9235 31.4764 26.2493 31.5026 26.2493 31.5026H25.942C25.406 31.5026 25.3566 32.0906 25.3539 32.279C25.3539 35.7408 25.3539 49.6468 25.3539 50.816C25.3539 52.1529 25.8075 53.2137 26.9018 54.1529C27.9956 55.0916 29.2766 55.0093 29.2766 55.0093C29.2766 55.0093 49.0002 55.0093 49.8584 55.0069C50.7167 55.0044 51.844 54.5903 52.7743 53.4515C53.7037 52.3128 53.6457 50.8156 53.6457 50.8156Z"/>
</mask>
<path d="M53.6457 50.8156V32.1574C53.6457 31.5791 53.2718 31.5074 53.1218 31.5021H52.6162C52.1227 31.5021 52.0797 32.0586 52.0783 32.2407C52.0783 32.2587 52.0783 32.2737 52.0783 32.2916C52.0783 32.2931 52.0783 32.3013 52.0783 32.3013C52.0797 35.9099 52.0874 50.5545 52.0765 50.8412C52.0643 51.1692 52.0031 52.0076 51.2554 52.7284C50.447 53.4234 49.6378 53.3314 49.6378 53.3314C49.6378 53.3314 29.4606 53.3314 28.9825 53.3048C28.6028 53.2394 27.9408 53.095 27.3766 52.2958C26.813 51.4966 26.9235 50.4484 26.9235 50.4484V32.3149C26.9235 31.4764 26.2493 31.5026 26.2493 31.5026H25.942C25.406 31.5026 25.3566 32.0906 25.3539 32.279C25.3539 35.7408 25.3539 49.6468 25.3539 50.816C25.3539 52.1529 25.8075 53.2137 26.9018 54.1529C27.9956 55.0916 29.2766 55.0093 29.2766 55.0093C29.2766 55.0093 49.0002 55.0093 49.8584 55.0069C50.7167 55.0044 51.844 54.5903 52.7743 53.4515C53.7037 52.3128 53.6457 50.8156 53.6457 50.8156Z" fill="white"/>
</g>
<defs>
<clipPath id="clip0">
<rect width="29" height="31" fill="white" transform="translate(25 24)"/>
</clipPath>
</defs>
</svg>
