<svg width="80" height="80" viewBox="0 0 80 80" fill="none" xmlns="http://www.w3.org/2000/svg">
<rect width="80" height="80" fill="white"/>
<rect width="80" height="80" fill="#68B738"/>
<ellipse cx="46.9389" cy="32.4399" rx="1.44974" ry="1.44682" fill="white"/>
<ellipse cx="32.4415" cy="32.4399" rx="1.44974" ry="1.44682" fill="white"/>
<ellipse cx="32.4415" cy="49.8017" rx="1.44974" ry="1.44683" fill="white"/>
<ellipse cx="39.6903" cy="52.6954" rx="1.44974" ry="1.44682" fill="white"/>
<ellipse cx="28.0923" cy="41.0331" rx="1.44974" ry="1.44683" fill="white"/>
<ellipse cx="51.288" cy="41.0331" rx="1.44974" ry="1.44683" fill="white"/>
<ellipse cx="46.9389" cy="49.8017" rx="1.44974" ry="1.44683" fill="white"/>
<mask id="path-9-inside-1" fill="white">
<path fill-rule="evenodd" clip-rule="evenodd" d="M46.7919 55.9649C47.197 55.7625 47.6902 55.8311 48.0061 56.1556L50.6192 58.8389C50.9759 59.2052 51.5646 59.2052 51.9214 58.8389V58.8389C52.265 58.486 52.265 57.9236 51.9213 57.5708L49.8429 55.4365C49.417 54.9991 49.4807 54.2869 49.9492 53.8955C53.6404 50.8119 56 46.0998 56 40.8193C56 31.5303 48.698 24 39.6904 24C30.6829 24 23.3809 31.5303 23.3809 40.8193C23.3809 46.045 25.6918 50.714 29.3172 53.7989C29.7792 54.192 29.8389 54.8987 29.4158 55.3332L27.2368 57.5708C26.8931 57.9236 26.8931 58.486 27.2367 58.8389V58.8389C27.5935 59.2052 28.1822 59.2052 28.5389 58.8389L31.2256 56.08C31.5442 55.7528 32.0425 55.686 32.4491 55.8941C34.6308 57.0108 37.0895 57.6387 39.6904 57.6387C42.2359 57.6387 44.6451 57.0373 46.7919 55.9649ZM39.6904 55.7698C47.6971 55.7698 54.1878 49.0763 54.1878 40.8193C54.1878 32.5624 47.6971 25.8688 39.6904 25.8688C31.6837 25.8688 25.193 32.5624 25.193 40.8193C25.193 49.0763 31.6837 55.7698 39.6904 55.7698ZM38.6777 40.3974V35.3335V30.5462C38.6777 29.9939 39.1254 29.5462 39.6777 29.5462H39.7611C40.3134 29.5462 40.7611 29.9939 40.7611 30.5462V35.3335V40.3974V41.1208V41.5676C40.7611 42.1199 40.3134 42.5676 39.7611 42.5676H39.6903H39.6777C39.1254 42.5676 38.6777 42.1199 38.6777 41.5676V41.1208V40.3974Z"/>
</mask>
<path fill-rule="evenodd" clip-rule="evenodd" d="M46.7919 55.9649C47.197 55.7625 47.6902 55.8311 48.0061 56.1556L50.6192 58.8389C50.9759 59.2052 51.5646 59.2052 51.9214 58.8389V58.8389C52.265 58.486 52.265 57.9236 51.9213 57.5708L49.8429 55.4365C49.417 54.9991 49.4807 54.2869 49.9492 53.8955C53.6404 50.8119 56 46.0998 56 40.8193C56 31.5303 48.698 24 39.6904 24C30.6829 24 23.3809 31.5303 23.3809 40.8193C23.3809 46.045 25.6918 50.714 29.3172 53.7989C29.7792 54.192 29.8389 54.8987 29.4158 55.3332L27.2368 57.5708C26.8931 57.9236 26.8931 58.486 27.2367 58.8389V58.8389C27.5935 59.2052 28.1822 59.2052 28.5389 58.8389L31.2256 56.08C31.5442 55.7528 32.0425 55.686 32.4491 55.8941C34.6308 57.0108 37.0895 57.6387 39.6904 57.6387C42.2359 57.6387 44.6451 57.0373 46.7919 55.9649ZM39.6904 55.7698C47.6971 55.7698 54.1878 49.0763 54.1878 40.8193C54.1878 32.5624 47.6971 25.8688 39.6904 25.8688C31.6837 25.8688 25.193 32.5624 25.193 40.8193C25.193 49.0763 31.6837 55.7698 39.6904 55.7698ZM38.6777 40.3974V35.3335V30.5462C38.6777 29.9939 39.1254 29.5462 39.6777 29.5462H39.7611C40.3134 29.5462 40.7611 29.9939 40.7611 30.5462V35.3335V40.3974V41.1208V41.5676C40.7611 42.1199 40.3134 42.5676 39.7611 42.5676H39.6903H39.6777C39.1254 42.5676 38.6777 42.1199 38.6777 41.5676V41.1208V40.3974Z" fill="white"/>
<path d="M31.2256 56.08L34.0913 58.8706L31.2256 56.08ZM32.4491 55.8941L34.2716 52.3334L32.4491 55.8941ZM28.5389 58.8389L25.6733 56.0482L28.5389 58.8389ZM27.2368 57.5708L30.1024 60.3614L27.2368 57.5708ZM49.8429 55.4365L46.9772 58.2272L49.8429 55.4365ZM49.9492 53.8955L47.3848 50.8257L49.9492 53.8955ZM29.4158 55.3332L26.5501 52.5425L29.4158 55.3332ZM51.9213 57.5708L54.787 54.7801L51.9213 57.5708ZM50.6192 58.8389L53.4849 56.0482L50.6192 58.8389ZM48.0061 56.1556L50.8718 53.3649L48.0061 56.1556ZM46.7919 55.9649L48.5795 59.5432L46.7919 55.9649ZM45.1404 58.9462L47.7535 61.6295L53.4849 56.0482L50.8718 53.3649L45.1404 58.9462ZM54.787 54.7801L52.7086 52.6458L46.9772 58.2272L49.0557 60.3614L54.787 54.7801ZM52.5137 56.9653C57.0954 53.1377 60 47.31 60 40.8193H52C52 44.8896 50.1854 48.4861 47.3848 50.8257L52.5137 56.9653ZM60 40.8193C60 29.4381 51.0222 20 39.6904 20V28C46.3737 28 52 33.6225 52 40.8193H60ZM39.6904 20C28.3586 20 19.3809 29.4381 19.3809 40.8193H27.3809C27.3809 33.6225 33.0072 28 39.6904 28V20ZM19.3809 40.8193C19.3809 47.2427 22.2256 53.0167 26.725 56.8453L31.9094 50.7525C29.158 48.4113 27.3809 44.8473 27.3809 40.8193H19.3809ZM26.5501 52.5425L24.3711 54.7801L30.1024 60.3614L32.2814 58.1239L26.5501 52.5425ZM31.4046 61.6295L34.0913 58.8706L28.3599 53.2893L25.6733 56.0482L31.4046 61.6295ZM30.6266 59.4548C33.3561 60.8519 36.4377 61.6387 39.6904 61.6387V53.6387C37.7414 53.6387 35.9056 53.1698 34.2716 52.3334L30.6266 59.4548ZM39.6904 61.6387C42.8735 61.6387 45.8932 60.8852 48.5795 59.5432L45.0043 52.3865C43.3971 53.1895 41.5982 53.6387 39.6904 53.6387V61.6387ZM39.6904 59.7698C50.0214 59.7698 58.1878 51.1685 58.1878 40.8193H50.1878C50.1878 46.9841 45.3728 51.7698 39.6904 51.7698V59.7698ZM58.1878 40.8193C58.1878 30.4702 50.0214 21.8688 39.6904 21.8688V29.8688C45.3728 29.8688 50.1878 34.6546 50.1878 40.8193H58.1878ZM39.6904 21.8688C29.3595 21.8688 21.193 30.4702 21.193 40.8193H29.193C29.193 34.6546 34.008 29.8688 39.6904 29.8688V21.8688ZM21.193 40.8193C21.193 51.1685 29.3595 59.7698 39.6904 59.7698V51.7698C34.008 51.7698 29.193 46.9841 29.193 40.8193H21.193ZM39.6777 33.5462H39.7611V25.5462H39.6777V33.5462ZM36.7611 40.3974V41.1208H44.7611V40.3974H36.7611ZM36.7611 41.1208V41.5676H44.7611V41.1208H36.7611ZM39.7611 38.5676H39.6903V46.5676H39.7611V38.5676ZM39.6903 38.5676H39.6777V46.5676H39.6903V38.5676ZM42.6777 41.5676V41.1208H34.6777V41.5676H42.6777ZM42.6777 41.1208V40.3974H34.6777V41.1208H42.6777ZM42.6777 40.3974V35.3335H34.6777V40.3974H42.6777ZM42.6777 35.3335V30.5462H34.6777V35.3335H42.6777ZM36.7611 30.5462V35.3335H44.7611V30.5462H36.7611ZM36.7611 35.3335V40.3974H44.7611V35.3335H36.7611ZM39.6777 25.5462C36.9163 25.5462 34.6777 27.7848 34.6777 30.5462H42.6777C42.6777 32.203 41.3345 33.5462 39.6777 33.5462V25.5462ZM36.7611 41.5676C36.7611 39.9107 38.1043 38.5676 39.7611 38.5676V46.5676C42.5225 46.5676 44.7611 44.329 44.7611 41.5676H36.7611ZM34.0913 58.8706C33.1072 59.8812 31.6803 59.9942 30.6266 59.4548L34.2716 52.3334C32.4047 51.3779 29.9813 51.6244 28.3599 53.2893L34.0913 58.8706ZM24.371 61.6295C26.298 63.6083 29.4776 63.6083 31.4046 61.6295L25.6733 56.0482C26.8867 54.8021 28.889 54.8021 30.1025 56.0482L24.371 61.6295ZM24.3711 54.7801C22.515 56.686 22.515 59.7236 24.371 61.6295L30.1025 56.0482C31.2712 57.2484 31.2712 59.1612 30.1024 60.3614L24.3711 54.7801ZM52.7086 52.6458C54.0372 54.0101 53.6869 55.9851 52.5137 56.9653L47.3848 50.8257C45.2745 52.5886 44.7968 55.9881 46.9772 58.2272L52.7086 52.6458ZM39.7611 33.5462C38.1043 33.5462 36.7611 32.203 36.7611 30.5462H44.7611C44.7611 27.7848 42.5225 25.5462 39.7611 25.5462V33.5462ZM26.725 56.8453C25.5665 55.8595 25.2307 53.8974 26.5501 52.5425L32.2814 58.1239C34.4472 55.8999 33.9918 52.5244 31.9094 50.7525L26.725 56.8453ZM54.7871 61.6295C56.6431 59.7236 56.6431 56.686 54.787 54.7801L49.0557 60.3614C47.8869 59.1612 47.8869 57.2484 49.0556 56.0482L54.7871 61.6295ZM47.7535 61.6295C49.6805 63.6083 52.8601 63.6083 54.7871 61.6295L49.0556 56.0482C50.2691 54.8021 52.2714 54.8021 53.4849 56.0482L47.7535 61.6295ZM39.6777 38.5676C41.3345 38.5676 42.6777 39.9107 42.6777 41.5676H34.6777C34.6777 44.329 36.9163 46.5676 39.6777 46.5676V38.5676ZM50.8718 53.3649C49.2641 51.714 46.8653 51.4569 45.0043 52.3865L48.5795 59.5432C47.5288 60.0681 46.1162 59.9482 45.1404 58.9462L50.8718 53.3649Z" fill="white" mask="url(#path-9-inside-1)"/>
<rect x="33.6667" y="23.3334" width="4" height="1.5" transform="rotate(-90 33.6667 23.3334)" fill="white"/>
<rect x="26.6667" y="19.3334" width="15.5" height="1.5" rx="0.75" fill="white"/>
</svg>
