<svg width="80" height="80" viewBox="0 0 80 80" fill="none" xmlns="http://www.w3.org/2000/svg">
<rect width="80" height="80" fill="white"/>
<rect width="80" height="80" fill="#68B738"/>
<g clip-path="url(#clip0)">
<path d="M57.125 22.3559C56.9912 21.7559 56.4862 21.3333 55.91 21.3333C55.9075 21.3333 55.905 21.3333 55.9025 21.3333C49.3187 21.3773 33.3087 22.5546 26.845 32.5066C23.4875 37.6773 23.1987 44.3906 25.9862 52.4599C26.0075 52.5226 26.0512 52.5652 26.08 52.6226C25.0837 55.2532 24.6975 57.0039 24.6875 57.0533C24.5425 57.7733 24.9737 58.4826 25.6487 58.6373C25.7362 58.6573 25.8237 58.6666 25.9112 58.6666C26.4875 58.6666 27.0062 58.2386 27.1325 57.6132C27.1587 57.4772 30.3437 43.7826 41.6037 35.7759C42.1787 35.3679 42.3337 34.5399 41.95 33.9266C41.5662 33.3133 40.7912 33.1466 40.2162 33.5573C33.8312 38.0973 29.8987 44.2346 27.5862 49.0986C25.9312 42.9946 26.365 37.9293 28.9012 34.0253C33.8925 26.3399 45.7312 24.4866 52.8775 24.0946C51.34 26.4959 49.66 30.8986 49.66 38.6666C49.66 42.8266 48.5537 46.0292 46.3737 48.1866C42.8787 51.6412 37.2012 51.9653 33.0487 51.6319C32.3587 51.5719 31.76 52.1266 31.7075 52.8612C31.655 53.5946 32.1712 54.2346 32.8587 54.2906C33.69 54.3586 34.5775 54.3999 35.5 54.3999C39.7275 54.3999 44.6587 53.5159 48.0725 50.1413C50.785 47.4599 52.16 43.5999 52.16 38.6679C52.16 26.5359 56.4475 23.8733 56.4687 23.8613C56.9887 23.5826 57.2612 22.9586 57.125 22.3559Z" fill="white"/>
</g>
<defs>
<clipPath id="clip0">
<rect width="40" height="42.6667" fill="white" transform="translate(20 18.6666)"/>
</clipPath>
</defs>
</svg>
