<svg width="23" height="23" viewBox="0 0 23 23" fill="none" xmlns="http://www.w3.org/2000/svg">
<path d="M11.5844 3.6626C12.9177 3.6626 14.0063 3.67822 14.85 3.70947C15.5688 3.74072 16.2094 3.86572 16.7719 4.08447C17.3135 4.29281 17.7823 4.59489 18.1781 4.99072C18.574 5.38656 18.876 5.85531 19.0844 6.39697C19.3031 6.95947 19.4281 7.6001 19.4594 8.31885C19.4906 9.1626 19.5063 10.2511 19.5063 11.5845C19.5063 12.9178 19.4906 14.0063 19.4594 14.8501C19.4281 15.5688 19.3031 16.2095 19.0844 16.772C18.876 17.3136 18.574 17.7824 18.1781 18.1782C17.7823 18.5741 17.3135 18.8761 16.7719 19.0845C16.2094 19.3032 15.5688 19.4282 14.85 19.4595C14.0063 19.4907 12.9177 19.5063 11.5844 19.5063C10.251 19.5063 9.16251 19.4907 8.31876 19.4595C7.60001 19.4282 6.95938 19.3032 6.39688 19.0845C5.85521 18.8761 5.38646 18.5741 4.99063 18.1782C4.5948 17.7824 4.29271 17.3136 4.08438 16.772C3.86563 16.2095 3.74063 15.5688 3.70938 14.8501C3.67813 14.0063 3.66251 12.9178 3.66251 11.5845C3.66251 10.2511 3.67813 9.1626 3.70938 8.31885C3.74063 7.6001 3.86563 6.95947 4.08438 6.39697C4.29271 5.85531 4.5948 5.38656 4.99063 4.99072C5.38646 4.59489 5.85521 4.29281 6.39688 4.08447C6.95938 3.86572 7.60001 3.74072 8.31876 3.70947C9.16251 3.67822 10.251 3.6626 11.5844 3.6626ZM11.5844 4.69385C10.199 4.69385 9.06876 4.70947 8.19376 4.74072C7.63126 4.76156 7.11042 4.86051 6.63126 5.0376C5.88126 5.3501 5.35001 5.88135 5.03751 6.63135C4.86042 7.11051 4.76146 7.63135 4.74063 8.19385C4.70938 9.06885 4.69376 10.1991 4.69376 11.5845C4.69376 12.9699 4.70938 14.1001 4.74063 14.9751C4.76146 15.5376 4.86042 16.0584 5.03751 16.5376C5.35001 17.2876 5.88126 17.8188 6.63126 18.1313C7.11042 18.3084 7.63126 18.4074 8.19376 18.4282C9.06876 18.4595 10.199 18.4751 11.5844 18.4751C12.9698 18.4751 14.1 18.4595 14.975 18.4282C15.5375 18.4074 16.0583 18.3084 16.5375 18.1313C17.2875 17.8188 17.8188 17.2876 18.1313 16.5376C18.3083 16.0584 18.4073 15.5376 18.4281 14.9751C18.4594 14.1001 18.475 12.9699 18.475 11.5845C18.475 10.1991 18.4594 9.06885 18.4281 8.19385C18.4073 7.63135 18.3083 7.11051 18.1313 6.63135C17.8188 5.88135 17.2875 5.3501 16.5375 5.0376C16.0583 4.86051 15.5375 4.76156 14.975 4.74072C14.1 4.70947 12.9698 4.69385 11.5844 4.69385ZM11.5844 14.7563C12.4594 14.7563 13.2068 14.4465 13.8266 13.8267C14.4464 13.2069 14.7563 12.4595 14.7563 11.5845C14.7563 10.7095 14.4464 9.96208 13.8266 9.34228C13.2068 8.72249 12.4594 8.4126 11.5844 8.4126C10.7094 8.4126 9.96199 8.72249 9.34219 9.34228C8.7224 9.96208 8.41251 10.7095 8.41251 11.5845C8.41251 12.4595 8.7224 13.2069 9.34219 13.8267C9.96199 14.4465 10.7094 14.7563 11.5844 14.7563ZM11.5844 7.52197C12.7094 7.52197 13.6677 7.91781 14.4594 8.70947C15.251 9.50114 15.6469 10.4595 15.6469 11.5845C15.6469 12.7095 15.251 13.6678 14.4594 14.4595C13.6677 15.2511 12.7094 15.647 11.5844 15.647C10.4594 15.647 9.50105 15.2511 8.70938 14.4595C7.91771 13.6678 7.52188 12.7095 7.52188 11.5845C7.52188 10.4595 7.91771 9.50114 8.70938 8.70947C9.50105 7.91781 10.4594 7.52197 11.5844 7.52197ZM16.7719 7.36572C16.7719 7.62614 16.6781 7.84749 16.4906 8.02978C16.3031 8.21208 16.074 8.30322 15.8031 8.30322C15.5427 8.30322 15.3214 8.21208 15.1391 8.02978C14.9568 7.84749 14.8656 7.62614 14.8656 7.36572C14.8656 7.09489 14.9568 6.86572 15.1391 6.67822C15.3214 6.49072 15.5427 6.39697 15.8031 6.39697C16.0635 6.39697 16.2901 6.49333 16.4828 6.68603C16.6755 6.87874 16.7719 7.10531 16.7719 7.36572Z" fill="#666666"/>
</svg>
