<svg width="23" height="23" viewBox="0 0 23 23" fill="none" xmlns="http://www.w3.org/2000/svg">
<path d="M0.5 7.70091C0.5 7.07907 0.92312 6.74377 1.76936 6.695L5.0303 6.71329C5.24916 6.71329 5.39506 6.80473 5.46801 6.98763C5.80359 7.9021 6.17929 8.69159 6.59512 9.35611C7.01094 10.0206 7.55443 10.7857 8.22559 11.6514C8.28395 11.7612 8.37879 11.816 8.5101 11.816C8.61223 11.816 8.69248 11.7734 8.75084 11.688L8.8165 11.4868L8.83838 8.32275C8.83838 8.10328 8.77638 7.95697 8.65236 7.88381C8.52834 7.81065 8.29854 7.75578 7.96296 7.7192C7.70034 7.68262 7.56902 7.5485 7.56902 7.31684C7.56902 7.26807 7.57632 7.23149 7.59091 7.2071C7.89731 6.41456 8.77273 6.01829 10.2172 6.01829L11.4428 6C11.9972 6 12.4568 6.11583 12.8215 6.3475C13.1863 6.57916 13.3687 6.94495 13.3687 7.44486V11.5966C13.4708 11.6575 13.5657 11.688 13.6532 11.688C13.8721 11.688 14.0617 11.5783 14.2222 11.3588C15.8272 9.48108 16.6953 8.22521 16.8266 7.59118C16.8266 7.57899 16.8412 7.5485 16.8704 7.49973C16.9725 7.31684 17.1403 7.15833 17.3737 7.02421C17.6072 6.89008 17.8114 6.79864 17.9865 6.74987C18.0449 6.72548 18.1106 6.71329 18.1835 6.71329H21.5758L21.7946 6.73158C22.0864 6.73158 22.3126 6.84741 22.4731 7.07907C22.5314 7.15223 22.5716 7.23149 22.5934 7.31684C22.6153 7.40219 22.6299 7.48754 22.6372 7.57289C22.6445 7.65824 22.6481 7.70701 22.6481 7.7192V7.84723C22.546 8.34714 22.287 8.88058 21.8712 9.44755C21.4554 10.0145 20.9265 10.6272 20.2845 11.2856C19.6425 11.9441 19.2413 12.3769 19.0808 12.5842C18.9495 12.7305 18.8838 12.8646 18.8838 12.9866C18.8838 13.0841 18.9422 13.1938 19.0589 13.3158L22.2542 16.681C22.4293 16.8761 22.5168 17.0895 22.5168 17.3211C22.5168 17.6016 22.3855 17.8332 22.1229 18.0161C21.8603 18.199 21.5466 18.3027 21.1818 18.3271L20.8098 18.3453H17.4832C17.4686 18.3453 17.4394 18.3484 17.3956 18.3545C17.3519 18.3606 17.3227 18.3636 17.3081 18.3636C16.9871 18.3636 16.688 18.2478 16.4108 18.0161C16.3086 17.9186 15.6229 17.1992 14.3535 15.858C14.2806 15.7726 14.1785 15.6934 14.0471 15.6202C13.9888 15.8153 13.9122 16.0957 13.8173 16.4615C13.7225 16.8273 13.6532 17.0895 13.6094 17.248L13.5438 17.5589C13.3979 17.9857 13.0915 18.2417 12.6246 18.3271L12.3182 18.3453H10.1734C8.9624 18.3453 7.75505 17.882 6.55135 16.9554C5.34764 16.0287 4.26431 14.8307 3.30135 13.3615C2.33838 11.8922 1.44108 10.1822 0.609428 8.23131C0.536476 8.0728 0.5 7.896 0.5 7.70091ZM13.6532 12.4379C13.3468 12.4379 13.0696 12.3678 12.8215 12.2275C12.5735 12.0873 12.4495 11.8953 12.4495 11.6514V7.44486C12.4495 7.201 12.3765 7.02725 12.2306 6.92361C12.0847 6.81997 11.8294 6.76815 11.4646 6.76815L10.2172 6.80473C9.58979 6.80473 9.1156 6.89618 8.79461 7.07907C9.43659 7.33513 9.75758 7.74969 9.75758 8.32275V11.5417C9.7284 11.8465 9.58249 12.0995 9.31987 12.3007C9.05724 12.5019 8.76543 12.6025 8.44445 12.6025C8.00673 12.6025 7.67116 12.4257 7.43771 12.0721C6.29966 10.6333 5.45342 9.26771 4.89899 7.97526L4.70202 7.49973L1.79125 7.48144C1.60157 7.48144 1.49579 7.49059 1.47391 7.50888C1.45202 7.52717 1.44108 7.57899 1.44108 7.66434C1.44108 7.77407 1.45567 7.8899 1.48485 8.01183L1.94444 9.03604C3.17003 11.6819 4.5014 13.7669 5.93855 15.291C7.3757 16.8151 8.78732 17.5772 10.1734 17.5772H12.362C12.4495 17.5772 12.5152 17.5559 12.5589 17.5132C12.6027 17.4705 12.6392 17.3882 12.6684 17.2663L12.7121 17.0834L13.1279 15.4739C13.2447 15.2544 13.3468 15.1081 13.4343 15.035C13.5948 14.9008 13.7845 14.8338 14.0034 14.8338C14.3535 14.8338 14.711 15.0106 15.0758 15.3642L16.936 17.3394C17.0528 17.4979 17.1768 17.5772 17.3081 17.5772H20.9192C21.3569 17.5772 21.5758 17.4857 21.5758 17.3029C21.5758 17.2419 21.5539 17.1809 21.5101 17.12L18.3367 13.8096C18.0887 13.5535 17.9646 13.2792 17.9646 12.9866C17.9646 12.6939 18.0814 12.4135 18.3148 12.1452C18.5045 11.9014 18.8729 11.496 19.42 10.929C19.9672 10.362 20.445 9.83163 20.8535 9.33782C21.2621 8.844 21.532 8.39591 21.6633 7.99354L21.729 7.75578C21.7144 7.7314 21.7071 7.69177 21.7071 7.6369C21.7071 7.58203 21.6998 7.53631 21.6852 7.49973H18.2492C18.0303 7.57289 17.8552 7.68262 17.7239 7.82894L17.5926 8.17644C17.2278 9.01775 16.2722 10.3163 14.7256 12.0721C14.4192 12.3159 14.0617 12.4379 13.6532 12.4379Z" fill="#666666"/>
</svg>
