<svg width="23" height="23" viewBox="0 0 23 23" fill="none" xmlns="http://www.w3.org/2000/svg">
<path fill-rule="evenodd" clip-rule="evenodd" d="M10.194 3.49506C11.1386 2.56885 12.4179 2.05005 13.75 2.05005H16.5C16.7485 2.05005 16.95 2.25152 16.95 2.50005V6.09539C16.95 6.34392 16.7485 6.54539 16.5 6.54539H13.75C13.6234 6.54539 13.5038 6.59478 13.4169 6.67996C13.3303 6.76485 13.2833 6.87807 13.2833 6.99423V9.24074H16.5C16.6389 9.24074 16.7701 9.30492 16.8553 9.41463C16.9406 9.52434 16.9704 9.66728 16.9361 9.80191L16.0194 13.3973C15.9686 13.5966 15.7891 13.7361 15.5833 13.7361H13.2833V20.4768C13.2833 20.7253 13.0819 20.9268 12.8333 20.9268H9.16668C8.91815 20.9268 8.71668 20.7253 8.71668 20.4768V13.7361H6.41667C6.16815 13.7361 5.96667 13.5346 5.96667 13.2861V9.69074C5.96667 9.44221 6.16815 9.24074 6.41667 9.24074H8.71668V6.99423C8.71668 5.68007 9.24916 4.42156 10.194 3.49506ZM13.75 2.95005C12.651 2.95005 11.5987 3.37823 10.8242 4.13767C10.05 4.89681 9.61668 5.92453 9.61668 6.99423V9.69074C9.61668 9.93926 9.4152 10.1407 9.16668 10.1407H6.86667V12.8361H9.16668C9.4152 12.8361 9.61668 13.0376 9.61668 13.2861V20.0268H12.3833V13.2861C12.3833 13.0376 12.5848 12.8361 12.8333 12.8361H15.2337L15.9209 10.1407H12.8333C12.5848 10.1407 12.3833 9.93926 12.3833 9.69074V6.99423C12.3833 6.63361 12.5295 6.28959 12.7868 6.03735C13.0437 5.7854 13.3904 5.64539 13.75 5.64539H16.05V2.95005H13.75Z" fill="#666666"/>
</svg>
