<svg width="112" height="232" viewBox="0 0 112 232" fill="none" xmlns="http://www.w3.org/2000/svg">
<path d="M55.44 231.28C43.12 231.28 32.8533 228.947 24.64 224.28C16.4267 219.613 10.2667 212.893 6.16 204.12C2.05333 195.347 0 184.987 0 173.04V165.48H29.68C29.68 166.227 29.68 167.067 29.68 168C29.68 168.747 29.68 169.587 29.68 170.52C29.8667 177.24 30.6133 183.307 31.92 188.72C33.4133 194.133 35.9333 198.427 39.48 201.6C43.2133 204.773 48.5333 206.36 55.44 206.36C62.72 206.36 68.2267 204.68 71.96 201.32C75.6933 197.773 78.2133 192.827 79.52 186.48C80.8267 180.133 81.48 172.853 81.48 164.64C81.48 152.693 79.24 142.987 74.76 135.52C70.4667 127.867 62.8133 123.667 51.8 122.92C51.24 122.733 50.4933 122.64 49.56 122.64C48.8133 122.64 48.16 122.64 47.6 122.64V92.68C48.16 92.68 48.8133 92.68 49.56 92.68C50.3067 92.68 50.96 92.68 51.52 92.68C62.16 92.3067 69.8133 89.5067 74.48 84.28C79.1467 79.0533 81.48 70.3733 81.48 58.24C81.48 47.9733 79.7067 39.76 76.16 33.6C72.8 27.44 65.9867 24.36 55.72 24.36C45.4533 24.36 38.64 27.8133 35.28 34.72C31.92 41.44 30.0533 50.12 29.68 60.76C29.68 61.5067 29.68 62.3467 29.68 63.28C29.68 64.0267 29.68 64.7733 29.68 65.52H0V57.96C0 45.8267 2.05333 35.4667 6.16 26.88C10.2667 18.2933 16.4267 11.6667 24.64 6.99999C33.04 2.33333 43.4 0 55.72 0C68.2267 0 78.5867 2.33333 86.8 6.99999C95.0133 11.6667 101.173 18.3867 105.28 27.16C109.387 35.7467 111.44 46.1067 111.44 58.24C111.44 71.8667 108.453 82.7867 102.48 91C96.6933 99.2133 88.8533 104.813 78.96 107.8C85.8667 109.853 91.6533 113.4 96.32 118.44C101.173 123.48 104.907 129.92 107.52 137.76C110.133 145.413 111.44 154.373 111.44 164.64C111.44 178.08 109.573 189.84 105.84 199.92C102.107 209.813 96.1333 217.56 87.92 223.16C79.7067 228.573 68.88 231.28 55.44 231.28Z" fill="#F2F2F2"/>
</svg>
