<svg width="113" height="229" viewBox="0 0 113 229" fill="none" xmlns="http://www.w3.org/2000/svg">
<path d="M0.143311 228.76V207.48L57.8233 117.6C62.1166 110.88 66.0366 104.627 69.5833 98.84C73.3166 93.0533 76.3033 86.9867 78.5433 80.64C80.97 74.1067 82.1833 66.64 82.1833 58.24C82.1833 47.7867 80.5033 39.5733 77.1433 33.6C73.7833 27.6267 67.9033 24.64 59.5033 24.64C52.41 24.64 46.9033 26.6 42.9833 30.52C39.0633 34.44 36.3566 39.5733 34.8633 45.92C33.37 52.2667 32.6233 59.08 32.6233 66.36V73.92H2.66331V66.08C2.66331 52.4533 4.43664 40.7867 7.98331 31.08C11.7166 21.1867 17.5966 13.5333 25.6233 8.12C33.8366 2.70666 44.6633 0 58.1033 0C76.3966 0 90.0233 5.22667 98.9833 15.68C107.943 25.9467 112.423 40.2267 112.423 58.52C112.423 68.2267 111.21 76.72 108.783 84C106.543 91.28 103.557 98.0933 99.8233 104.44C96.09 110.787 91.9833 117.32 87.5033 124.04L35.4233 203.56H107.103V228.76H0.143311Z" fill="#F2F2F2"/>
</svg>
