<svg width="21" height="21" viewBox="0 0 21 21" fill="none" xmlns="http://www.w3.org/2000/svg">
<path d="M18.9 9.75275H10.4V10.9569H18.9L16.8 13.0641L17.7 13.9672L20.8 10.8565C20.8974 10.7263 20.95 10.5678 20.95 10.405C20.95 10.2421 20.8974 10.0837 20.8 9.95344L17.7 6.84277L16.8 7.74587L18.9 9.75275Z" fill="black"/>
<path d="M9.10001 19.7872V13.5659C9.08846 13.41 9.02154 13.2635 8.91142 13.153C8.80131 13.0425 8.65532 12.9754 8.50001 12.9638H4.10001C4.10516 13.2815 4.23325 13.5848 4.45718 13.8095C4.68112 14.0342 4.98336 14.1627 5.30001 14.1679H7.80001V19.1851H4.10001C3.86326 19.2 3.62591 19.1676 3.40176 19.0896C3.17762 19.0117 2.97115 18.8898 2.79436 18.7311C2.61757 18.5723 2.47399 18.3799 2.37196 18.165C2.26992 17.9501 2.21148 17.717 2.20001 17.4793V3.43112C2.19181 2.96681 2.36516 2.51774 2.68292 2.18013C3.00069 1.84252 3.43758 1.64322 3.90001 1.62492H7.80001V6.64212H5.40001C5.08336 6.64729 4.78112 6.77581 4.55718 7.00052C4.33325 7.22523 4.20516 7.52851 4.20001 7.84625H8.60001C8.75531 7.83466 8.90131 7.76751 9.01142 7.65701C9.12154 7.54651 9.18846 7.40002 9.20001 7.24419V0.922517C9.15232 0.76584 9.06117 0.626022 8.93721 0.519407C8.81325 0.412792 8.66161 0.343785 8.50001 0.320453H4.10001C3.70599 0.307054 3.31321 0.371716 2.94411 0.510744C2.57501 0.649771 2.23684 0.860436 1.94893 1.13069C1.66103 1.40095 1.42903 1.7255 1.26621 2.08579C1.10338 2.44608 1.01293 2.83504 1.00001 3.23043V17.1782C0.971036 17.5773 1.02465 17.978 1.15749 18.3552C1.29032 18.7324 1.49951 19.078 1.77189 19.3701C2.04426 19.6623 2.37394 19.8947 2.74019 20.0529C3.10643 20.211 3.50132 20.2913 3.90001 20.2889H8.50001C8.5735 20.304 8.64943 20.3022 8.72216 20.2839C8.7949 20.2655 8.86259 20.2309 8.92021 20.1828C8.97783 20.1346 9.02391 20.074 9.05504 20.0055C9.08616 19.9371 9.10153 19.8624 9.10001 19.7872Z" fill="black"/>
</svg>
