<svg width="28" height="35" viewBox="0 0 28 35" fill="none" xmlns="http://www.w3.org/2000/svg">
<path d="M14.1371 0.399902H14L0.5 1.83899V26.6461L14 34.6639L27.5 26.6461V1.83899L14.1371 0.399902V0.399902ZM25.7868 25.6182L14 32.608L2.2132 25.6182V15.476L13.9315 22.4659V23.6994L5.91371 18.9024V20.1359L14 25.0014V26.3035L5.91371 21.5065V22.74L14 27.537L22.1548 22.6715V17.4634L25.7868 15.2705V25.6182V25.6182ZM25.7183 13.9684L22.4975 15.8872L20.9898 16.7781L13.9315 12.5979V13.8314L19.9619 17.4634H19.8934L19.7563 17.5319L18.8655 18.0116L13.8629 15.0649V16.2984L17.8376 18.6283L16.8782 19.2451L13.9315 17.4634V18.6969L15.9188 19.8618L13.9315 21.0268L2.28173 14.1055L13.9315 7.11564L25.7183 13.9684V13.9684ZM25.7868 12.7349L13.9315 5.74508L2.2132 12.7349V3.41513L14 2.18163L25.7868 3.41513V12.7349Z" fill="#666666"/>
</svg>
