<svg width="34" height="38" viewBox="0 0 34 38" fill="none" xmlns="http://www.w3.org/2000/svg">
<g clip-path="url(#clip0)">
<path d="M6.47 20.92V18.66C13.1536 17.7423 19.8937 17.2979 26.64 17.33C26.64 17.93 26.64 18.54 26.58 19.15C28.4976 18.299 30.5128 17.6877 32.58 17.33C31.2625 13.922 28.8617 11.0412 25.7471 9.13087C22.6324 7.22052 18.9764 6.38641 15.3414 6.75684C11.7064 7.12727 8.29379 8.68173 5.62852 11.1811C2.96325 13.6805 1.19297 16.9863 0.59 20.59L6.47 20.92Z" fill="#FDC305"/>
<path d="M27.64 24.43C26.48 25.71 26.25 25.63 26.25 27.88C26.25 28.79 26.25 32.78 26.25 37.06C28.5425 35.546 30.4245 33.4879 31.728 31.0694C33.0315 28.6509 33.7158 25.9474 33.72 23.2C33.7068 22.1592 33.5997 21.1216 33.4 20.1C31.3282 21.3295 29.3968 22.7814 27.64 24.43Z" fill="#FDC305"/>
<path d="M6.76 25.92C6.76 25.92 2.97 24.48 1.57 24.09C1.18707 23.9693 0.796097 23.8757 0.4 23.81C0.508396 26.696 1.36559 29.5041 2.88739 31.9586C4.40919 34.4131 6.54326 36.4296 9.08 37.81L6.76 25.92Z" fill="#FDC305"/>
<path d="M26.69 17.32C26.7307 11.7987 26.262 6.2853 25.29 0.850016C25.29 0.850016 25.15 -0.439983 24.4 0.610016C23.8109 1.85816 23.4067 3.18541 23.2 4.55002C18.9418 4.27579 14.6675 4.38959 10.43 4.89002C9.64 2.20002 8.25 0.950016 7.58 1.20002C6.91 1.45002 6.86 4.51002 6.86 4.51002L6.53 18.61C13.2113 17.706 19.948 17.275 26.69 17.32Z" fill="#F06351"/>
<path d="M12.81 14.2C12.81 14.11 13.81 14.88 14.22 15.12C14.63 15.36 14.83 15.54 14.83 15.71C14.83 15.88 14.56 16.05 14.2 16.05C13.84 16.05 13.29 15.93 13.2 15.78H14.14H14.43C13.8207 15.3294 13.2757 14.7978 12.81 14.2Z" fill="black"/>
<path d="M20.29 14.31L19.2 15.64C19.2 15.7 19.03 15.99 19.38 15.94C19.7942 15.8783 20.2023 15.7812 20.6 15.65C20.71 15.65 20.67 15.46 20.49 15.48C20.31 15.5 19.8 15.53 19.49 15.59L20.33 14.33C20.33 14.33 20.4 14.2 20.29 14.31Z" fill="black"/>
<path d="M17.15 20.4C17.6135 20.1958 17.9967 19.8443 18.24 19.4C18.52 18.75 18.24 18.49 17.8 18.4C17.1979 18.2902 16.5765 18.4116 16.06 18.74C15.67 19.1 15.72 19.46 16.01 19.74C16.3613 20.0062 16.7442 20.2279 17.15 20.4Z" fill="black"/>
<path d="M16.75 21.65C16.6379 21.8785 16.4816 22.0825 16.29 22.25C16.0052 22.4791 15.6551 22.6122 15.29 22.63C14.7638 22.672 14.2406 22.5189 13.82 22.2C13.6222 22.0808 13.4436 21.9324 13.29 21.76C13.1895 21.6491 13.0669 21.5605 12.93 21.5C12.93 21.5 13.68 25.6 15.5 26.25C17.32 26.9 17.64 25.5 17.7 25.12C17.7601 23.9851 17.4742 22.8588 16.88 21.89C16.86 21.58 16.85 21.78 16.75 21.65Z" fill="#F06351"/>
<path d="M15.11 22.79C14.6453 22.7247 14.1989 22.5651 13.7982 22.3209C13.3975 22.0767 13.051 21.7531 12.78 21.37C12.7667 21.357 12.7561 21.3414 12.7489 21.3242C12.7417 21.3071 12.738 21.2886 12.738 21.27C12.738 21.2514 12.7417 21.2329 12.7489 21.2158C12.7561 21.1986 12.7667 21.183 12.78 21.17C12.793 21.1567 12.8086 21.1461 12.8258 21.1389C12.8429 21.1317 12.8614 21.128 12.88 21.128C12.8986 21.128 12.9171 21.1317 12.9342 21.1389C12.9514 21.1461 12.967 21.1567 12.98 21.17C13.4848 21.8642 14.243 22.3313 15.09 22.47C15.4217 22.445 15.7426 22.3413 16.0261 22.1674C16.3096 21.9934 16.5475 21.7544 16.72 21.47L16.86 21.28L16.96 21.49C16.96 21.49 17.33 22.25 17.96 22.29C18.59 22.33 19.01 21.88 19.57 21.01C19.583 20.9967 19.5986 20.9861 19.6158 20.9789C19.6329 20.9717 19.6514 20.968 19.67 20.968C19.6886 20.968 19.7071 20.9717 19.7242 20.9789C19.7414 20.9861 19.757 20.9967 19.77 21.01C19.8023 21.0306 19.8255 21.0629 19.8348 21.1001C19.8441 21.1373 19.8388 21.1766 19.82 21.21C19.18 22.21 18.55 22.65 17.94 22.61C17.708 22.5763 17.4867 22.4904 17.2927 22.3587C17.0987 22.2271 16.9371 22.0531 16.82 21.85C16.6233 22.1245 16.3676 22.3514 16.0717 22.5141C15.7758 22.6767 15.4471 22.771 15.11 22.79Z" fill="black"/>
<path d="M26.64 19.12C24.8445 20.7437 23.1512 22.477 21.57 24.31C19.9986 26.1361 18.2238 27.7768 16.28 29.2C16.06 28.67 14.66 27.69 14.66 27.69C14.66 27.69 11.53 25.55 9.48 23.87C8.37414 22.9373 7.3287 21.9353 6.35 20.87L4.35 20.76C7.24018 24.9655 11.4702 28.0676 16.35 29.56C17.21 29.42 19.62 27.7 21.42 26.3C23.5389 24.4819 25.524 22.5134 27.36 20.41C27.8625 19.821 28.2493 19.1425 28.5 18.41C27.4 18.8 26.64 19.12 26.64 19.12Z" fill="#F06351"/>
</g>
<defs>
<clipPath id="clip0">
<rect width="33.32" height="37.61" fill="white" transform="translate(0.4 0.200012)"/>
</clipPath>
</defs>
</svg>
