<svg width="190" height="38" viewBox="0 0 190 38" fill="none" xmlns="http://www.w3.org/2000/svg">
<g clip-path="url(#clip0)">
<path d="M6.07 20.72V18.46C12.7536 17.5423 19.4937 17.0979 26.24 17.13C26.24 17.73 26.24 18.34 26.18 18.95C28.0976 18.099 30.1128 17.4877 32.18 17.13C30.8625 13.722 28.4618 10.8412 25.3471 8.93086C22.2325 7.02051 18.5764 6.1864 14.9414 6.55683C11.3064 6.92726 7.89379 8.48172 5.22852 10.9811C2.56325 13.4804 0.792971 16.7863 0.190002 20.39L6.07 20.72Z" fill="#FDC305"/>
<path d="M27.24 24.23C26.08 25.51 25.85 25.43 25.85 27.68C25.85 28.59 25.85 32.58 25.85 36.86C28.1425 35.346 30.0245 33.2879 31.328 30.8694C32.6315 28.4509 33.3158 25.7474 33.32 23C33.3068 21.9591 33.1997 20.9216 33 19.9C30.9282 21.1295 28.9968 22.5814 27.24 24.23Z" fill="#FDC305"/>
<path d="M6.36 25.72C6.36 25.72 2.57 24.28 1.17 23.89C0.787067 23.7693 0.396097 23.6757 0 23.61C0.108395 26.4959 0.965588 29.3041 2.48739 31.7586C4.00919 34.2131 6.14326 36.2296 8.68 37.61L6.36 25.72Z" fill="#FDC305"/>
<path d="M26.29 17.12C26.3307 11.5986 25.862 6.08529 24.89 0.650004C24.89 0.650004 24.75 -0.639996 24 0.410004C23.4109 1.65814 23.0067 2.9854 22.8 4.35C18.5418 4.07577 14.2675 4.18958 10.03 4.69C9.24 2 7.85 0.750004 7.18 1C6.51 1.25 6.46 4.31 6.46 4.31L6.13 18.41C12.8113 17.506 19.548 17.0749 26.29 17.12V17.12Z" fill="#F06351"/>
<path d="M12.41 14C12.41 13.91 13.41 14.68 13.82 14.92C14.23 15.16 14.43 15.34 14.43 15.51C14.43 15.68 14.16 15.85 13.8 15.85C13.44 15.85 12.89 15.73 12.8 15.58H13.74H14.03C13.4207 15.1294 12.8757 14.5978 12.41 14V14Z" fill="black"/>
<path d="M19.89 14.11L18.8 15.44C18.8 15.5 18.63 15.79 18.98 15.74C19.3942 15.6783 19.8023 15.5812 20.2 15.45C20.31 15.45 20.27 15.26 20.09 15.28C19.91 15.3 19.4 15.33 19.09 15.39L19.93 14.13C19.93 14.13 20 14 19.89 14.11Z" fill="black"/>
<path d="M16.75 20.2C17.2135 19.9958 17.5967 19.6443 17.84 19.2C18.12 18.55 17.84 18.29 17.4 18.2C16.7979 18.0902 16.1765 18.2116 15.66 18.54C15.27 18.9 15.32 19.26 15.61 19.54C15.9613 19.8062 16.3442 20.0279 16.75 20.2V20.2Z" fill="black"/>
<path d="M16.35 21.45C16.2379 21.6785 16.0816 21.8825 15.89 22.05C15.6052 22.2791 15.2551 22.4122 14.89 22.43C14.3638 22.472 13.8406 22.3189 13.42 22C13.2222 21.8808 13.0436 21.7324 12.89 21.56C12.7895 21.4491 12.6669 21.3605 12.53 21.3C12.53 21.3 13.28 25.4 15.1 26.05C16.92 26.7 17.24 25.3 17.3 24.92C17.3601 23.7851 17.0742 22.6587 16.48 21.69C16.46 21.38 16.45 21.58 16.35 21.45Z" fill="#F06351"/>
<path d="M14.71 22.59C14.2453 22.5247 13.7989 22.3651 13.3982 22.1209C12.9975 21.8767 12.651 21.5531 12.38 21.17C12.3667 21.157 12.3561 21.1414 12.3489 21.1242C12.3417 21.1071 12.338 21.0886 12.338 21.07C12.338 21.0514 12.3417 21.0329 12.3489 21.0158C12.3561 20.9986 12.3667 20.983 12.38 20.97C12.393 20.9567 12.4086 20.9461 12.4258 20.9389C12.4429 20.9317 12.4614 20.928 12.48 20.928C12.4986 20.928 12.5171 20.9317 12.5342 20.9389C12.5514 20.9461 12.567 20.9567 12.58 20.97C13.0848 21.6642 13.843 22.1313 14.69 22.27V22.27C15.0217 22.245 15.3426 22.1413 15.6261 21.9674C15.9096 21.7934 16.1475 21.5544 16.32 21.27L16.46 21.08L16.56 21.29C16.56 21.29 16.93 22.05 17.56 22.09C18.19 22.13 18.61 21.68 19.17 20.81C19.183 20.7967 19.1986 20.7861 19.2158 20.7789C19.2329 20.7717 19.2514 20.768 19.27 20.768C19.2886 20.768 19.3071 20.7717 19.3242 20.7789C19.3414 20.7861 19.357 20.7967 19.37 20.81C19.4023 20.8306 19.4255 20.8629 19.4348 20.9C19.4441 20.9372 19.4388 20.9766 19.42 21.01C18.78 22.01 18.15 22.45 17.54 22.41C17.308 22.3763 17.0867 22.2903 16.8927 22.1587C16.6987 22.0271 16.5371 21.8531 16.42 21.65C16.2233 21.9245 15.9676 22.1514 15.6717 22.3141C15.3758 22.4767 15.0472 22.571 14.71 22.59V22.59Z" fill="black"/>
<path d="M26.24 18.92C24.4445 20.5437 22.7512 22.277 21.17 24.11C19.5986 25.9361 17.8238 27.5768 15.88 29C15.66 28.47 14.26 27.49 14.26 27.49C14.26 27.49 11.13 25.35 9.08 23.67C7.97414 22.7373 6.9287 21.7353 5.95 20.67L3.95 20.56C6.84017 24.7655 11.0702 27.8676 15.95 29.36C16.81 29.22 19.22 27.5 21.02 26.1C23.1389 24.2819 25.124 22.3134 26.96 20.21C27.4625 19.621 27.8493 18.9425 28.1 18.21C27 18.6 26.24 18.92 26.24 18.92Z" fill="#F06351"/>
</g>
<g clip-path="url(#clip1)">
<path d="M89.8645 28.3384C88.9696 27.0762 88.5253 25.5627 88.6 24.0308V17.6461C88.4916 16.0977 88.9081 14.5574 89.7855 13.2615C90.6548 12.2615 91.9983 11.8 93.974 11.8C95.9498 11.8 97.2143 12.2615 98.0046 13.1077C98.8626 14.1794 99.2846 15.5213 99.19 16.8769V18.4154H95.3175V16.6461C95.3488 16.1229 95.2681 15.599 95.0805 15.1077C94.9802 14.9094 94.8212 14.7448 94.624 14.6351C94.4269 14.5255 94.2005 14.4757 93.974 14.4923C93.4208 14.4923 93.0257 14.6461 92.8676 15.0308C92.6888 15.5773 92.6086 16.1499 92.6305 16.7231V24.9538C92.5888 25.5099 92.6978 26.067 92.9467 26.5692C93.1047 26.9538 93.4999 27.1077 94.0531 27.1077C94.6063 27.1077 94.9224 26.9538 95.0805 26.5692C95.2601 26.0494 95.3405 25.5019 95.3175 24.9538V23.1077H99.19V24.6461C99.2704 26.0238 98.8508 27.3852 98.0046 28.4923C97.2143 29.4154 95.8708 29.8769 93.974 29.8769C92.0773 29.8 90.6548 29.3384 89.8645 28.3384Z" fill="#111111"/>
<path d="M103.853 12.0308H108.357L111.677 29.5692H108.041L107.409 25.8769H104.801L104.169 29.5692H100.454L103.853 12.0308ZM107.093 23.5692L106.145 16.7231L105.196 23.5692H107.093Z" fill="#111111"/>
<path d="M114.443 14.9538H111.756V12.0308H121.16V14.8769H118.473V29.5692H114.443V14.9538Z" fill="#111111"/>
<path d="M128.352 12.0308H135.307V13.8769H130.802V19.6461H134.437V21.4154H130.802V27.8769H135.307V29.6461H128.273V12.0308H128.352Z" fill="#111111"/>
<path d="M137.361 12.0308H139.1L144.237 23.6461V12.0308H146.292V29.5692H144.711L139.495 17.5692V29.5692H137.361V12.0308Z" fill="#111111"/>
<path d="M148.663 12.0308H155.617V13.8769H151.113V19.6461H154.748V21.4154H151.113V27.8769H155.617V29.6461H148.663V12.0308Z" fill="#111111"/>
<path d="M157.672 12.0307H161.307C162.737 11.9346 164.159 12.3143 165.338 13.1077C166.207 13.8 166.602 15.0307 166.602 16.6461C166.602 18.8769 165.891 20.2615 164.39 20.7231L166.918 29.4923H164.469L162.098 21.2615H160.122V29.4923H157.593V12.0307H157.672ZM161.149 19.5692C161.964 19.6346 162.776 19.4165 163.441 18.9538C163.915 18.5692 164.152 17.8 164.152 16.6461C164.174 16.0729 164.094 15.5004 163.915 14.9538C163.737 14.5616 163.432 14.2373 163.046 14.0307C162.502 13.7893 161.904 13.6836 161.307 13.7231H160.201V19.4923H161.149V19.5692Z" fill="#111111"/>
<path d="M169.764 28.2615C168.942 26.9165 168.556 25.3616 168.657 23.8V17.9538C168.638 16.8391 168.77 15.7268 169.052 14.6461C169.317 13.8386 169.844 13.1367 170.554 12.6461C171.436 12.1377 172.454 11.8967 173.478 11.9538C175.138 11.9538 176.323 12.3384 177.034 13.1846C177.852 14.3019 178.244 15.6623 178.141 17.0307V17.6461H175.77V17.1077C175.773 16.4634 175.72 15.8201 175.612 15.1846C175.545 14.783 175.318 14.4235 174.979 14.1846C174.535 13.9008 174.008 13.7658 173.478 13.8C172.911 13.7646 172.35 13.9284 171.897 14.2615C171.711 14.414 171.559 14.6018 171.451 14.8134C171.342 15.0251 171.279 15.2561 171.265 15.4923C171.161 16.18 171.108 16.8741 171.107 17.5692V24.1077C171.049 25.1038 171.21 26.1005 171.581 27.0307C171.897 27.6461 172.53 27.8769 173.478 27.8769C173.852 27.9223 174.232 27.8589 174.57 27.6947C174.907 27.5304 175.187 27.2726 175.375 26.9538C175.792 25.9811 175.981 24.9298 175.928 23.8769V22.6461H173.636V20.8769H178.22V29.5692H176.639L176.402 27.5692C176.195 28.2395 175.763 28.8231 175.176 29.2273C174.589 29.6315 173.88 29.8331 173.162 29.8C172.509 29.8374 171.856 29.7164 171.263 29.4478C170.67 29.1793 170.155 28.7717 169.764 28.2615V28.2615Z" fill="#111111"/>
<path d="M183.278 23.4154L179.405 12.1077H181.776L184.542 20.5692L187.229 12.1077H189.6L185.728 23.4154V29.5692H183.357V23.4154H183.278Z" fill="#111111"/>
</g>
<defs>
<clipPath id="clip0">
<rect width="33.32" height="37.61" fill="white"/>
</clipPath>
<clipPath id="clip1">
<rect width="101" height="18" fill="white" transform="translate(88.6 11.8)"/>
</clipPath>
</defs>
</svg>
