<svg width="174" height="51" viewBox="0 0 174 51" fill="none" xmlns="http://www.w3.org/2000/svg">
<g clip-path="url(#clip0)">
<g clip-path="url(#clip1)">
<path d="M51.5819 19.654C50.0969 16.065 47.7053 12.9312 44.6456 10.5649C41.5858 8.1987 37.9646 6.68262 34.143 6.16782C30.3214 5.65301 26.4328 6.15745 22.8646 7.63086C19.2965 9.10427 16.1735 11.4952 13.8068 14.5654C11.4402 17.6355 9.9125 21.2777 9.37609 25.129C8.83968 28.9802 9.31325 32.906 10.7496 36.5151C12.186 40.1242 14.535 43.2906 17.5625 45.6987C20.59 48.1068 24.1903 49.6726 28.0046 50.2399C27.505 48.4238 26.9967 46.4166 26.5488 44.2878C27.8519 45.1405 29.2235 45.8816 30.6492 46.5035C30.6492 46.5035 30.7526 48.3804 30.8904 50.4745C32.4308 50.5013 33.9698 50.3644 35.4818 50.0661C35.4427 49.8477 35.4427 49.6241 35.4818 49.4057C35.7316 47.7808 36.4208 44.8526 36.5586 42.967C37.552 42.0297 38.3948 40.9421 39.0567 39.7434L39.005 40.1257C38.5312 43.8273 37.5406 47.7808 36.9376 48.8757C36.7424 49.2381 36.5021 49.5739 36.2226 49.8749C39.3408 49.1371 42.2626 47.724 44.7855 45.7336C47.3083 43.7433 49.3718 41.2233 50.8329 38.3484C52.2941 35.4735 53.1179 32.3124 53.2472 29.0843C53.3765 25.8563 52.8083 22.6385 51.5819 19.654ZM50.3156 22.9472C49.9366 23.3208 49.1527 23.5728 49.0235 22.4432C48.8942 21.3136 48.8598 20.5229 48.8598 20.5229C48.8598 20.5229 47.1972 17.5425 46.577 17.5078C45.9568 17.473 41.5549 20.5229 40.3919 21.8524C39.3841 22.9733 39.1859 22.8951 39.1859 24.8675C39.1859 26.3534 39.3755 31.9666 39.2721 36.259L32.2514 38.1446C30.0448 38.7834 27.8007 39.2825 25.5323 39.6391L24.6709 34.5733H24.5503L22.3364 23.1297C22.3364 23.1297 19.0543 21.8784 17.8483 21.5396C17.2821 21.2897 16.6568 21.2084 16.0462 21.3054C15.4356 21.4024 14.8653 21.6736 14.4026 22.087C13.9306 22.5039 13.5531 23.0185 13.296 23.5958C13.0388 24.173 12.908 24.7994 12.9124 25.4323C13.0945 25.8362 13.2331 26.2586 13.3258 26.6922C13.3689 27.1093 12.2921 27.0659 11.603 27.0659C10.9138 27.0659 10.8105 25.8146 11.3532 24.3462C11.7766 23.217 12.3013 22.1292 12.921 21.0964C13.387 20.1738 13.9881 19.3273 14.7041 18.5852C14.7041 18.5852 14.8247 18.2898 15.7809 18.3767C16.7371 18.4636 22.0521 18.7503 22.0521 18.7503L22.0952 16.7779C27.8722 15.9733 33.6987 15.5842 39.5305 15.6135C39.5305 16.1436 39.5305 16.6736 39.5305 17.2037C41.7394 16.1869 44.118 15.5974 46.5425 15.4658C46.6723 15.4625 46.8008 15.4917 46.9166 15.5509C47.0323 15.61 47.1317 15.6973 47.2058 15.8047C47.4987 16.1783 49.2819 18.4115 49.4886 18.733C50.0677 19.5677 50.5942 20.4384 51.065 21.3397C50.9037 21.9104 50.6505 22.4505 50.3156 22.9385V22.9472Z" fill="#FDC305"/>
<path d="M48.6363 17.6294C49.0411 18.1508 49.3943 18.6113 49.4977 18.7503C50.0768 19.5851 50.6033 20.4557 51.0741 21.3571C50.9102 21.9091 50.6601 22.4312 50.3333 22.9038C49.9543 23.2774 49.1704 23.5294 49.0411 22.3998C48.9119 21.2702 48.8602 20.5229 48.8602 20.5229C48.8602 20.5229 47.1977 17.5425 46.5775 17.5078C45.9572 17.473 41.5553 20.5229 40.3924 21.8524C39.3845 22.9733 39.1864 22.8951 39.1864 24.8675C39.1864 26.1709 39.3328 30.6458 39.2984 34.6254C40.8576 34.7992 43.149 35.2337 43.8381 36.259C43.8381 36.259 43.5883 30.0202 50.5659 33.2873C50.5659 33.2873 50.8071 24.7806 60.4378 26.9616C57.1639 23.0844 53.1505 19.9107 48.6363 17.6294Z" fill="#F06351"/>
<path d="M39.5654 15.6135C39.6005 10.7987 39.1968 5.99071 38.3594 1.25035C38.3594 1.25035 38.2302 0.120762 37.61 1.04181C37.0982 2.14292 36.7499 3.31403 36.5763 4.51748C32.8938 4.27915 29.1975 4.37803 25.5328 4.81291C24.8264 2.42339 23.6204 1.33725 23.0432 1.62399C22.4661 1.91073 22.3972 4.47404 22.3972 4.47404L22.1129 16.7779C27.8956 15.9725 33.7279 15.5834 39.5654 15.6135Z" fill="#F06351"/>
<path d="M39.0651 39.7434C39.1771 38.8136 39.2374 37.5798 39.2719 36.2156L32.2516 38.1011C30.0459 38.7546 27.8019 39.2682 25.5327 39.6391L26.4889 43.9837C26.4889 44.0793 26.4889 44.1748 26.5492 44.2704C27.8522 45.1231 29.2238 45.8642 30.6494 46.4862C32.7328 45.4815 34.7171 44.2799 36.5757 42.8975V42.9497C37.5647 42.017 38.4044 40.9354 39.0651 39.7434Z" fill="#E55645"/>
<path d="M27.5657 12.8938C27.5227 12.8069 28.4271 13.4847 28.7803 13.6932C29.1334 13.9018 29.3057 14.0582 29.3057 14.2059C29.3057 14.3536 29.0818 14.5013 28.7717 14.5013C28.4616 14.5013 27.9792 14.3971 27.9103 14.2754C27.8414 14.1538 28.4271 14.2754 28.72 14.2754H28.9698C28.4395 13.8841 27.9667 13.4189 27.5657 12.8938Z" fill="black"/>
<path d="M34.0264 12.9894C34.0264 12.9894 33.165 14.1016 33.0875 14.1538C33.0099 14.2059 32.941 14.4492 33.2511 14.4057C33.6071 14.3521 33.9585 14.2708 34.302 14.1625C34.3968 14.1103 34.3623 13.9887 34.1986 14.006C34.035 14.0234 33.6129 14.0495 33.3373 14.1016L34.0694 12.9981C34.0694 12.9981 34.0953 12.8938 34.0264 12.9894Z" fill="black"/>
<path d="M31.3215 18.2985C31.7208 18.1211 32.0508 17.8156 32.2604 17.4296C32.5016 16.8561 32.2604 16.6389 31.8814 16.5607C31.36 16.4647 30.8218 16.5702 30.374 16.8561C30.038 17.1776 30.0811 17.4904 30.374 17.725C30.6649 17.9552 30.9832 18.1478 31.3215 18.2985Z" fill="black"/>
<path d="M31.0113 19.3933C30.9124 19.5904 30.778 19.7672 30.615 19.9147C30.3697 20.1138 30.0682 20.2294 29.7537 20.2449C29.2794 20.2918 28.8052 20.1552 28.4271 19.8625C28.2535 19.7601 28.099 19.6278 27.9706 19.4715C27.8844 19.3769 27.7785 19.3027 27.6605 19.2543C27.6605 19.2543 28.3065 22.8255 29.8743 23.399C31.442 23.9725 31.7348 22.7387 31.7779 22.4085C31.8304 21.4196 31.5841 20.4379 31.0716 19.5932C31.0716 19.3325 31.0544 19.5063 31.0113 19.3933Z" fill="#F06351"/>
<path d="M29.5469 20.3839C29.1438 20.3254 28.7566 20.1852 28.4087 19.9716C28.0608 19.7581 27.7594 19.4756 27.5226 19.1413C27.5015 19.1174 27.4897 19.0865 27.4897 19.0545C27.4897 19.0224 27.5015 18.9915 27.5226 18.9676C27.5339 18.956 27.5473 18.9468 27.5621 18.9405C27.5769 18.9343 27.5927 18.931 27.6088 18.931C27.6248 18.931 27.6407 18.9343 27.6555 18.9405C27.6703 18.9468 27.6837 18.956 27.6949 18.9676C27.9081 19.2692 28.1785 19.5252 28.4905 19.7206C28.8025 19.916 29.1499 20.0469 29.5124 20.1058C29.7993 20.0841 30.0769 19.994 30.3225 19.8429C30.5681 19.6919 30.7746 19.4842 30.9251 19.2369L31.0457 19.0718L31.1319 19.263C31.1319 19.263 31.4592 19.9234 31.9932 19.9581C32.5273 19.9929 32.9063 19.5932 33.3973 18.8372C33.4156 18.8096 33.444 18.7904 33.4763 18.7839C33.5086 18.7773 33.5422 18.784 33.5696 18.8025C33.597 18.8209 33.616 18.8496 33.6225 18.8822C33.629 18.9147 33.6223 18.9486 33.604 18.9762C33.0298 19.8278 32.4871 20.2362 31.976 20.2014C31.7785 20.175 31.5893 20.1043 31.4224 19.9946C31.2554 19.8848 31.115 19.7388 31.0113 19.5671C30.8427 19.8045 30.6238 20.001 30.3705 20.1423C30.1172 20.2836 29.8358 20.3661 29.5469 20.3839Z" fill="black"/>
<path d="M31.2353 32.0795C33.0192 32.0795 34.4655 30.6207 34.4655 28.8211C34.4655 27.0215 33.0192 25.5626 31.2353 25.5626C29.4513 25.5626 28.0051 27.0215 28.0051 28.8211C28.0051 30.6207 29.4513 32.0795 31.2353 32.0795Z" fill="#FDC305"/>
<path d="M35.5163 26.1709L32.8202 27.3092L33.8108 22.4172L27.3504 30.8978L30.0465 29.7595L29.0559 34.6602L35.5163 26.1709ZM29.1507 29.4988L32.734 24.798L32.0363 28.2737L33.7591 27.5611L30.1499 32.2707L30.8476 28.795L29.1507 29.4988Z" fill="#111111"/>
<path d="M27.9447 28.2215C28.4775 28.2215 28.9095 27.7858 28.9095 27.2483C28.9095 26.7109 28.4775 26.2751 27.9447 26.2751C27.4119 26.2751 26.9799 26.7109 26.9799 27.2483C26.9799 27.7858 27.4119 28.2215 27.9447 28.2215Z" fill="#111111"/>
<path d="M33.5612 31.7493C33.9371 31.7493 34.2417 31.442 34.2417 31.0629C34.2417 30.6838 33.9371 30.3764 33.5612 30.3764C33.1854 30.3764 32.8807 30.6838 32.8807 31.0629C32.8807 31.442 33.1854 31.7493 33.5612 31.7493Z" fill="#111111"/>
<path d="M34.3882 29.8638C34.5547 29.8638 34.6897 29.7276 34.6897 29.5597C34.6897 29.3917 34.5547 29.2555 34.3882 29.2555C34.2217 29.2555 34.0867 29.3917 34.0867 29.5597C34.0867 29.7276 34.2217 29.8638 34.3882 29.8638Z" fill="#111111"/>
<path d="M39.5224 17.1863C37.9674 18.6002 36.5029 20.1123 35.1377 21.7133C33.7778 23.3028 32.2433 24.7312 30.5635 25.971C30.374 25.5105 29.1594 24.6503 29.1594 24.6503C29.1594 24.6503 26.4545 22.7821 24.6799 21.3136C23.7207 20.5077 22.8169 19.6368 21.9751 18.7069L20.2522 18.6113C22.7392 22.2757 26.3826 24.983 30.5893 26.2925C31.3302 26.1709 33.4148 24.6677 34.974 23.4425C36.8187 21.8601 38.5461 20.1437 40.1426 18.3072C40.5717 17.7928 40.9044 17.2039 41.1246 16.5694C40.1426 16.8995 39.5224 17.1863 39.5224 17.1863Z" fill="#F06351"/>
<path d="M22.3368 23.1297C22.3368 23.1297 19.0548 21.8784 17.8488 21.5396C17.2825 21.2897 16.6572 21.2084 16.0466 21.3054C15.4361 21.4024 14.8658 21.6736 14.4031 22.087C13.931 22.5039 13.5536 23.0185 13.2964 23.5958C13.0393 24.173 12.9084 24.7994 12.9128 25.4323C13.0949 25.8362 13.2335 26.2585 13.3263 26.6922C13.3694 27.1093 12.2926 27.0659 11.6034 27.0659C10.9143 27.0659 10.8109 25.8146 11.3536 24.3462C11.777 23.217 12.3018 22.1292 12.9214 21.0964C8.22664 23.5641 0 29.2642 0 29.2642C2.35316 29.1211 4.71429 29.1909 7.0551 29.4728C11.5776 29.9333 11.3622 33.5306 11.3622 33.5306C12.9529 33.0883 14.574 32.7659 16.2121 32.5661C18.0383 32.4445 18.1675 34.4082 18.1675 34.4082L18.6241 37.7622C19.3173 37.0057 20.0819 36.3189 20.9069 35.7116C21.9703 34.8529 23.3243 34.4476 24.6799 34.582L22.3368 23.1297Z" fill="#F06351"/>
<path d="M73.7899 35.2945C72.9025 33.9681 72.4782 32.3815 72.584 30.7848V24.268C72.472 22.6596 72.8899 21.059 73.7727 19.7148C74.5709 18.6779 75.9348 18.1624 77.8643 18.1682C79.7938 18.174 81.1002 18.6287 81.7836 19.5324C82.6168 20.6522 83.0234 22.0368 82.9292 23.4338V24.9631H79.3631V23.3035C79.3583 22.8668 79.3208 22.4311 79.2511 22.0001C79.208 21.6881 79.066 21.3985 78.8462 21.1746C78.7106 21.0573 78.5531 20.9684 78.3831 20.9132C78.213 20.858 78.0337 20.8376 77.8557 20.8531C77.6 20.8146 77.3388 20.8565 77.1076 20.9732C76.8764 21.0898 76.6864 21.2754 76.5636 21.5048C76.3371 22.115 76.2374 22.7657 76.2707 23.4164V31.6885C76.2314 32.3435 76.3465 32.9986 76.6066 33.6001C76.7309 33.8171 76.9153 33.9927 77.1372 34.1054C77.3591 34.2181 77.6088 34.263 77.8557 34.2344C78.0982 34.269 78.3454 34.2255 78.5619 34.11C78.7785 33.9946 78.9533 33.8131 79.0616 33.5914C79.27 32.9801 79.3606 32.3342 79.3286 31.6885V29.9507H82.8948V31.4539C82.9997 32.8715 82.6263 34.2832 81.8353 35.4596C81.0772 36.4154 79.7679 36.8846 77.9073 36.8846C76.0467 36.8846 74.591 36.3633 73.7899 35.2945Z" fill="#111111"/>
<path d="M87.788 18.4201H91.871L95.3166 36.6674H91.9227L91.3111 32.6356H88.4513L87.7622 36.6413H84.3167L87.788 18.4201ZM90.9321 30.3417L89.8468 23.008L88.77 30.3417H90.9321Z" fill="#111111"/>
<path d="M97.9615 21.1659H95.1707V18.4201H104.405V21.1659H101.648V36.6413H97.9529L97.9615 21.1659Z" fill="#111111"/>
<path d="M111.65 18.4201H118.653V20.3144H114.174V26.336H117.809V28.1346H114.174V34.8166H118.696V36.6413H111.65V18.4201Z" fill="#444444"/>
<path d="M120.729 18.4201H122.452L127.62 30.5242V18.4201H129.722V36.6674H128.111L122.943 24.2245V36.6413H120.807L120.729 18.4201Z" fill="#444444"/>
<path d="M132.505 18.4201H139.499V20.3144H135.02V26.336H138.69V28.1346H135.055V34.8166H139.551V36.6413H132.505V18.4201Z" fill="#444444"/>
<path d="M141.576 18.4201H145.211C146.643 18.3039 148.07 18.7075 149.234 19.5584C150.095 20.3144 150.517 21.5482 150.517 23.26C150.517 25.5771 149.773 26.9935 148.286 27.509L150.87 36.6413H148.424L146.055 28.0912H144.1V36.6413H141.576V18.4201ZM145.021 26.2404C145.851 26.3214 146.681 26.0858 147.347 25.58C147.618 25.2569 147.82 24.8812 147.942 24.4763C148.063 24.0713 148.101 23.6456 148.053 23.2253C148.071 22.6357 147.986 22.0477 147.804 21.4874C147.73 21.2808 147.615 21.0913 147.467 20.9301C147.319 20.769 147.141 20.6393 146.942 20.549C146.383 20.3176 145.78 20.2137 145.176 20.2449H144.065V26.2752L145.021 26.2404Z" fill="#444444"/>
<path d="M153.911 35.2945C153.088 33.8926 152.707 32.2714 152.817 30.6458V24.5634C152.788 23.3896 152.933 22.218 153.248 21.0877C153.497 20.238 154.026 19.4993 154.747 18.9936C155.618 18.4642 156.626 18.21 157.641 18.2637C158.298 18.2007 158.961 18.2832 159.582 18.5053C160.204 18.7274 160.771 19.0839 161.242 19.5497C162.068 20.7176 162.459 22.1426 162.344 23.5728V24.2506H159.976V23.6858C159.992 23.0103 159.94 22.3348 159.821 21.6699C159.742 21.2438 159.509 20.8626 159.166 20.6011C158.719 20.3349 158.202 20.2108 157.684 20.2449C157.122 20.1963 156.562 20.3709 156.125 20.7315C155.768 21.0734 155.534 21.5261 155.462 22.0175C155.353 22.7332 155.304 23.457 155.315 24.1811V30.9499C155.247 31.9785 155.421 33.0088 155.824 33.9564C156.057 34.2478 156.354 34.4814 156.691 34.6395C157.028 34.7975 157.396 34.8757 157.768 34.8682C158.139 34.8606 158.504 34.7675 158.835 34.5959C159.165 34.4243 159.452 34.1788 159.674 33.8782C160.089 32.876 160.269 31.7905 160.2 30.7066V29.4206H157.908V27.622H162.474V36.6413H160.914L160.665 34.5472C160.467 35.243 160.042 35.8508 159.459 36.2721C158.876 36.6933 158.168 36.903 157.452 36.8672C156.778 36.9272 156.1 36.8144 155.481 36.5395C154.862 36.2645 154.322 35.8363 153.911 35.2945Z" fill="#444444"/>
<path d="M167.711 30.2113L163.809 18.4201H166.152L168.917 27.2136L171.639 18.4201H174.008L170.132 30.2113V36.6413H167.72L167.711 30.2113Z" fill="#444444"/>
</g>
</g>
<defs>
<clipPath id="clip0">
<rect width="174" height="51" fill="white"/>
</clipPath>
<clipPath id="clip1">
<rect width="174" height="51.6832" fill="white" transform="translate(0 -1.2)"/>
</clipPath>
</defs>
</svg>
