<?xml version="1.0" encoding="UTF-8"?>
<svg width="128px" height="24px" viewBox="0 0 128 24" version="1.1" xmlns="http://www.w3.org/2000/svg" xmlns:xlink="http://www.w3.org/1999/xlink">
    <title>text-logo-footer</title>
    <g id="text-logo-footer" stroke="none" stroke-width="1" fill="none" fill-rule="evenodd">
        <path d="M6.81068,-1.77635684e-15 C9.31459,-1.77635684e-15 10.9171,0.615385 11.9187,1.74359 C13.006,3.17255 13.5409,4.96181 13.421,6.76923 L13.421,8.82051 L8.51334,8.82051 L8.51334,6.46154 C8.55297,5.76385 8.45065,5.06533 8.21287,4.41026 C8.08577,4.14583 7.88432,3.9264 7.63444,3.78018 C7.38455,3.63395 7.09767,3.56763 6.81068,3.58974 C6.10958,3.58974 5.6088,3.79487 5.40848,4.30769 C5.18191,5.03643 5.08025,5.79984 5.10801,6.5641 L5.10801,17.5385 C5.05512,18.2799 5.19327,19.0227 5.50864,19.6923 C5.70895,20.2051 6.20974,20.4103 6.91083,20.4103 C7.61193,20.4103 8.01255,20.2051 8.21287,19.6923 C8.44058,18.9992 8.54242,18.2692 8.51334,17.5385 L8.51334,15.0769 L13.421,15.0769 L13.421,17.1282 C13.5229,18.9651 12.9911,20.7803 11.9187,22.2564 C10.9171,23.4872 9.21443,24.1026 6.81068,24.1026 C4.40692,24 2.6041,23.3846 1.60254,22.0513 C0.468361,20.3682 -0.0946541,18.3503 3.33788e-05,16.3077 L3.33788e-05,7.79487 C-0.137314,5.73031 0.390447,3.67661 1.50238,1.94872 C2.6041,0.615385 4.30676,-1.77635684e-15 6.81068,-1.77635684e-15 Z M107.568,0.20507 C109.671,0.20507 111.174,0.71789 112.075,1.8461 C113.112,3.33582 113.608,5.14977 113.477,6.9743 L113.477,7.79481 L110.473,7.79481 L110.473,7.07687 C110.477,6.21789 110.41,5.36008 110.272,4.51276 C110.188,3.97732 109.9,3.49792 109.471,3.17943 C108.908,2.80104 108.24,2.62099 107.568,2.66661 C106.85,2.61949 106.139,2.83785 105.565,3.28199 C105.329,3.48529 105.137,3.73569 104.999,4.01787 C104.861,4.30004 104.781,4.60805 104.764,4.92302 C104.632,5.83993 104.565,6.76543 104.563,7.69225 L104.563,16.4102 C104.49,17.7384 104.694,19.0674 105.164,20.3076 C105.565,21.1281 106.366,21.4358 107.568,21.4358 C108.043,21.4964 108.524,21.4119 108.952,21.1929 C109.38,20.9739 109.734,20.6302 109.972,20.2051 C110.501,18.9081 110.741,17.5064 110.673,16.1025 L110.673,14.4615 L107.768,14.4615 L107.768,12.1025 L113.577,12.1025 L113.577,23.6923 L111.574,23.6923 L111.274,21.0256 C111.011,21.9193 110.465,22.6975 109.72,23.2364 C108.976,23.7753 108.078,24.0441 107.167,23.9999 C106.34,24.0498 105.513,23.8885 104.761,23.5304 C104.01,23.1724 103.357,22.6289 102.861,21.9487 C101.82,20.1554 101.331,18.0821 101.459,15.9999 L101.459,8.20507 C101.434,6.71875 101.602,5.23567 101.959,3.79481 C102.294,2.71811 102.962,1.78218 103.862,1.12815 C104.981,0.450275 106.271,0.128917 107.568,0.20507 Z M59.1925,0.307617 L59.1925,2.76916 L53.4836,2.76916 L53.4836,10.4615 L58.0908,10.4615 L58.0908,12.8204 L53.4836,12.8204 L53.4836,21.4358 L59.1925,21.4358 L59.1925,23.7948 L50.2786,23.7948 L50.2786,0.307617 L59.1925,0.307617 Z M84.9327,0.307617 L84.9327,2.76916 L79.2238,2.76916 L79.2238,10.4615 L83.831,10.4615 L83.831,12.8204 L79.2238,12.8204 L79.2238,21.4358 L84.9327,21.4358 L84.9327,23.7948 L76.1189,23.7948 L76.1189,0.307617 L84.9327,0.307617 Z M25.0391,0.307617 L29.2457,23.6922 L24.6385,23.6922 L23.8372,18.7692 L20.5321,18.7692 L19.7308,23.6922 L15.0235,23.6922 L19.3302,0.307617 L25.0391,0.307617 Z M41.2645,0.307617 L41.2645,4.10249 L37.8592,4.10249 L37.8592,23.6922 L32.7512,23.6922 L32.7512,4.20505 L29.3459,4.20505 L29.3459,0.307617 L41.2645,0.307617 Z M64,0.307617 L70.5102,15.7948 L70.5102,0.307617 L73.1142,0.307617 L73.1142,23.6922 L71.1111,23.6922 L64.5008,7.69223 L64.5008,23.6922 L61.7966,23.6922 L61.7966,0.307617 L64,0.307617 Z M118.085,0.410156 L121.59,11.6922 L124.995,0.410156 L128,0.410156 L123.092,15.4871 L123.092,23.6922 L120.088,23.6922 L120.088,15.4871 L119.987,15.4871 L115.08,0.410156 L118.085,0.410156 Z M97.252,1.7435 C98.3537,2.66657 98.8545,4.3076 98.8545,6.46145 C98.8545,9.4358 97.953,11.282 96.0501,11.8973 L99.2551,23.5897 L96.1502,23.5897 L93.1455,12.6153 L90.6416,12.6153 L90.6416,23.5897 L87.4366,23.5897 L87.4366,0.3076 L92.144,0.3076 C93.9564,0.179397 95.7575,0.685711 97.252,1.7435 Z M22.2347,6.56403 L21.0329,15.6922 L23.4366,15.6922 L22.2347,6.56403 Z M92.144,2.56401 L90.7418,2.56401 L90.7418,10.2563 L91.9437,10.2563 L91.9437,10.3589 C92.9762,10.446 94.0054,10.1553 94.8482,9.53837 C95.4491,9.02555 95.7496,7.99991 95.7496,6.46145 C95.7774,5.69719 95.6757,4.93378 95.4491,4.20504 C95.2237,3.68211 94.8366,3.24964 94.3474,2.97427 C93.6576,2.65236 92.9003,2.51137 92.144,2.56401 Z" id="Combined-Shape" fill="#111111" fill-rule="nonzero"></path>
    </g>
</svg>